<mxfile host="app.diagrams.net" modified="2024-01-09T11:22:57.977Z" agent="Mozilla/5.0 (Windows NT 10.0; Win64; x64) AppleWebKit/537.36 (KHTML, like Gecko) Chrome/120.0.0.0 Safari/537.36 Edg/120.0.0.0" etag="zOi3-qfD4WnhpfXo60jO" version="22.1.17" type="github">
  <diagram id="R2lEEEUBdFMjLlhIrx00" name="Page-1">
    <mxGraphModel dx="768" dy="882" grid="1" gridSize="10" guides="1" tooltips="1" connect="1" arrows="1" fold="1" page="1" pageScale="1" pageWidth="850" pageHeight="1100" math="0" shadow="0" extFonts="Permanent Marker^https://fonts.googleapis.com/css?family=Permanent+Marker">
      <root>
        <mxCell id="0" />
        <mxCell id="1" parent="0" />
        <mxCell id="x9nKZWQnxBIK_kYr5y1J-1" value="USUARIO" style="rounded=0;whiteSpace=wrap;html=1;" vertex="1" parent="1">
          <mxGeometry x="75" y="140" width="120" height="60" as="geometry" />
        </mxCell>
        <mxCell id="x9nKZWQnxBIK_kYr5y1J-2" value="PROVISIONADOR DE TRANSPORTE" style="rounded=0;whiteSpace=wrap;html=1;" vertex="1" parent="1">
          <mxGeometry x="530" y="140" width="120" height="60" as="geometry" />
        </mxCell>
        <mxCell id="x9nKZWQnxBIK_kYr5y1J-3" value="Nombre" style="ellipse;whiteSpace=wrap;html=1;" vertex="1" parent="1">
          <mxGeometry x="20" y="260" width="70" height="50" as="geometry" />
        </mxCell>
        <mxCell id="x9nKZWQnxBIK_kYr5y1J-4" value="Apellido" style="ellipse;whiteSpace=wrap;html=1;" vertex="1" parent="1">
          <mxGeometry x="100" y="260" width="70" height="50" as="geometry" />
        </mxCell>
        <mxCell id="x9nKZWQnxBIK_kYr5y1J-5" value="Dirección" style="ellipse;whiteSpace=wrap;html=1;" vertex="1" parent="1">
          <mxGeometry x="180" y="260" width="70" height="50" as="geometry" />
        </mxCell>
        <mxCell id="x9nKZWQnxBIK_kYr5y1J-6" value="" style="endArrow=none;html=1;rounded=0;entryX=0.5;entryY=1;entryDx=0;entryDy=0;exitX=0.5;exitY=0;exitDx=0;exitDy=0;" edge="1" parent="1" source="x9nKZWQnxBIK_kYr5y1J-4" target="x9nKZWQnxBIK_kYr5y1J-1">
          <mxGeometry width="50" height="50" relative="1" as="geometry">
            <mxPoint x="345" y="450" as="sourcePoint" />
            <mxPoint x="395" y="400" as="targetPoint" />
          </mxGeometry>
        </mxCell>
        <mxCell id="x9nKZWQnxBIK_kYr5y1J-7" value="" style="endArrow=none;html=1;rounded=0;entryX=0.5;entryY=1;entryDx=0;entryDy=0;exitX=0.5;exitY=0;exitDx=0;exitDy=0;" edge="1" parent="1" source="x9nKZWQnxBIK_kYr5y1J-5" target="x9nKZWQnxBIK_kYr5y1J-1">
          <mxGeometry width="50" height="50" relative="1" as="geometry">
            <mxPoint x="345" y="450" as="sourcePoint" />
            <mxPoint x="395" y="400" as="targetPoint" />
          </mxGeometry>
        </mxCell>
        <mxCell id="x9nKZWQnxBIK_kYr5y1J-8" value="" style="endArrow=none;html=1;rounded=0;entryX=0.5;entryY=1;entryDx=0;entryDy=0;exitX=0.5;exitY=0;exitDx=0;exitDy=0;" edge="1" parent="1" source="x9nKZWQnxBIK_kYr5y1J-3" target="x9nKZWQnxBIK_kYr5y1J-1">
          <mxGeometry width="50" height="50" relative="1" as="geometry">
            <mxPoint x="345" y="450" as="sourcePoint" />
            <mxPoint x="395" y="400" as="targetPoint" />
          </mxGeometry>
        </mxCell>
        <mxCell id="x9nKZWQnxBIK_kYr5y1J-9" value="Nombre" style="ellipse;whiteSpace=wrap;html=1;" vertex="1" parent="1">
          <mxGeometry x="360" y="260" width="70" height="50" as="geometry" />
        </mxCell>
        <mxCell id="x9nKZWQnxBIK_kYr5y1J-10" value="Apellido" style="ellipse;whiteSpace=wrap;html=1;" vertex="1" parent="1">
          <mxGeometry x="440" y="260" width="70" height="50" as="geometry" />
        </mxCell>
        <mxCell id="x9nKZWQnxBIK_kYr5y1J-11" value="Dirección" style="ellipse;whiteSpace=wrap;html=1;" vertex="1" parent="1">
          <mxGeometry x="520" y="260" width="70" height="50" as="geometry" />
        </mxCell>
        <mxCell id="x9nKZWQnxBIK_kYr5y1J-12" value="Vehículo" style="ellipse;whiteSpace=wrap;html=1;" vertex="1" parent="1">
          <mxGeometry x="600" y="260" width="70" height="50" as="geometry" />
        </mxCell>
        <mxCell id="x9nKZWQnxBIK_kYr5y1J-13" value="Trayectos" style="ellipse;whiteSpace=wrap;html=1;" vertex="1" parent="1">
          <mxGeometry x="680" y="260" width="70" height="50" as="geometry" />
        </mxCell>
        <mxCell id="x9nKZWQnxBIK_kYr5y1J-14" value="Reseñas" style="ellipse;whiteSpace=wrap;html=1;" vertex="1" parent="1">
          <mxGeometry x="760" y="260" width="70" height="50" as="geometry" />
        </mxCell>
        <mxCell id="x9nKZWQnxBIK_kYr5y1J-15" value="" style="endArrow=none;html=1;rounded=0;entryX=0.5;entryY=1;entryDx=0;entryDy=0;exitX=0.5;exitY=0;exitDx=0;exitDy=0;" edge="1" parent="1" source="x9nKZWQnxBIK_kYr5y1J-9" target="x9nKZWQnxBIK_kYr5y1J-2">
          <mxGeometry width="50" height="50" relative="1" as="geometry">
            <mxPoint x="510" y="450" as="sourcePoint" />
            <mxPoint x="560" y="400" as="targetPoint" />
          </mxGeometry>
        </mxCell>
        <mxCell id="x9nKZWQnxBIK_kYr5y1J-16" value="" style="endArrow=none;html=1;rounded=0;exitX=0.5;exitY=0;exitDx=0;exitDy=0;" edge="1" parent="1" source="x9nKZWQnxBIK_kYr5y1J-10">
          <mxGeometry width="50" height="50" relative="1" as="geometry">
            <mxPoint x="510" y="450" as="sourcePoint" />
            <mxPoint x="590" y="200" as="targetPoint" />
          </mxGeometry>
        </mxCell>
        <mxCell id="x9nKZWQnxBIK_kYr5y1J-17" value="" style="endArrow=none;html=1;rounded=0;entryX=0.5;entryY=1;entryDx=0;entryDy=0;exitX=0.5;exitY=0;exitDx=0;exitDy=0;" edge="1" parent="1" source="x9nKZWQnxBIK_kYr5y1J-11" target="x9nKZWQnxBIK_kYr5y1J-2">
          <mxGeometry width="50" height="50" relative="1" as="geometry">
            <mxPoint x="510" y="450" as="sourcePoint" />
            <mxPoint x="560" y="400" as="targetPoint" />
          </mxGeometry>
        </mxCell>
        <mxCell id="x9nKZWQnxBIK_kYr5y1J-18" value="" style="endArrow=none;html=1;rounded=0;entryX=0.5;entryY=1;entryDx=0;entryDy=0;exitX=0.5;exitY=0;exitDx=0;exitDy=0;" edge="1" parent="1" source="x9nKZWQnxBIK_kYr5y1J-12" target="x9nKZWQnxBIK_kYr5y1J-2">
          <mxGeometry width="50" height="50" relative="1" as="geometry">
            <mxPoint x="510" y="450" as="sourcePoint" />
            <mxPoint x="560" y="400" as="targetPoint" />
          </mxGeometry>
        </mxCell>
        <mxCell id="x9nKZWQnxBIK_kYr5y1J-19" value="" style="endArrow=none;html=1;rounded=0;exitX=0.5;exitY=0;exitDx=0;exitDy=0;" edge="1" parent="1" source="x9nKZWQnxBIK_kYr5y1J-13">
          <mxGeometry width="50" height="50" relative="1" as="geometry">
            <mxPoint x="510" y="450" as="sourcePoint" />
            <mxPoint x="590" y="200" as="targetPoint" />
          </mxGeometry>
        </mxCell>
        <mxCell id="x9nKZWQnxBIK_kYr5y1J-20" value="" style="endArrow=none;html=1;rounded=0;entryX=0.5;entryY=1;entryDx=0;entryDy=0;exitX=0.5;exitY=0;exitDx=0;exitDy=0;" edge="1" parent="1" source="x9nKZWQnxBIK_kYr5y1J-14" target="x9nKZWQnxBIK_kYr5y1J-2">
          <mxGeometry width="50" height="50" relative="1" as="geometry">
            <mxPoint x="510" y="450" as="sourcePoint" />
            <mxPoint x="560" y="400" as="targetPoint" />
          </mxGeometry>
        </mxCell>
        <mxCell id="x9nKZWQnxBIK_kYr5y1J-21" value="Usuario" style="ellipse;whiteSpace=wrap;html=1;" vertex="1" parent="1">
          <mxGeometry x="65" y="330" width="70" height="50" as="geometry" />
        </mxCell>
        <mxCell id="x9nKZWQnxBIK_kYr5y1J-22" value="Contraseña" style="ellipse;whiteSpace=wrap;html=1;" vertex="1" parent="1">
          <mxGeometry x="145" y="330" width="70" height="50" as="geometry" />
        </mxCell>
        <mxCell id="x9nKZWQnxBIK_kYr5y1J-23" value="" style="endArrow=none;html=1;rounded=0;exitX=0.5;exitY=0;exitDx=0;exitDy=0;" edge="1" parent="1" source="x9nKZWQnxBIK_kYr5y1J-22">
          <mxGeometry width="50" height="50" relative="1" as="geometry">
            <mxPoint x="415" y="450" as="sourcePoint" />
            <mxPoint x="135" y="200" as="targetPoint" />
          </mxGeometry>
        </mxCell>
        <mxCell id="x9nKZWQnxBIK_kYr5y1J-24" value="" style="endArrow=none;html=1;rounded=0;entryX=0.5;entryY=1;entryDx=0;entryDy=0;exitX=0.5;exitY=0;exitDx=0;exitDy=0;" edge="1" parent="1" source="x9nKZWQnxBIK_kYr5y1J-21" target="x9nKZWQnxBIK_kYr5y1J-1">
          <mxGeometry width="50" height="50" relative="1" as="geometry">
            <mxPoint x="415" y="450" as="sourcePoint" />
            <mxPoint x="465" y="400" as="targetPoint" />
          </mxGeometry>
        </mxCell>
        <mxCell id="x9nKZWQnxBIK_kYr5y1J-25" value="Usuario" style="ellipse;whiteSpace=wrap;html=1;" vertex="1" parent="1">
          <mxGeometry x="470" y="330" width="70" height="50" as="geometry" />
        </mxCell>
        <mxCell id="x9nKZWQnxBIK_kYr5y1J-26" value="Contraseña" style="ellipse;whiteSpace=wrap;html=1;" vertex="1" parent="1">
          <mxGeometry x="550" y="330" width="70" height="50" as="geometry" />
        </mxCell>
        <mxCell id="x9nKZWQnxBIK_kYr5y1J-27" value="" style="endArrow=none;html=1;rounded=0;exitX=0.5;exitY=0;exitDx=0;exitDy=0;" edge="1" parent="1" source="x9nKZWQnxBIK_kYr5y1J-25">
          <mxGeometry width="50" height="50" relative="1" as="geometry">
            <mxPoint x="460" y="450" as="sourcePoint" />
            <mxPoint x="590" y="200" as="targetPoint" />
          </mxGeometry>
        </mxCell>
        <mxCell id="x9nKZWQnxBIK_kYr5y1J-28" value="" style="endArrow=none;html=1;rounded=0;exitX=0.5;exitY=0;exitDx=0;exitDy=0;" edge="1" parent="1" source="x9nKZWQnxBIK_kYr5y1J-26">
          <mxGeometry width="50" height="50" relative="1" as="geometry">
            <mxPoint x="460" y="450" as="sourcePoint" />
            <mxPoint x="590" y="200" as="targetPoint" />
          </mxGeometry>
        </mxCell>
        <mxCell id="x9nKZWQnxBIK_kYr5y1J-31" value="" style="endArrow=none;html=1;rounded=0;exitX=1;exitY=0.5;exitDx=0;exitDy=0;entryX=0;entryY=0.5;entryDx=0;entryDy=0;" edge="1" parent="1" source="x9nKZWQnxBIK_kYr5y1J-1" target="x9nKZWQnxBIK_kYr5y1J-2">
          <mxGeometry width="50" height="50" relative="1" as="geometry">
            <mxPoint x="420" y="450" as="sourcePoint" />
            <mxPoint x="470" y="400" as="targetPoint" />
          </mxGeometry>
        </mxCell>
        <mxCell id="x9nKZWQnxBIK_kYr5y1J-32" value="Solicita" style="rhombus;whiteSpace=wrap;html=1;" vertex="1" parent="1">
          <mxGeometry x="290" y="130" width="80" height="80" as="geometry" />
        </mxCell>
        <mxCell id="x9nKZWQnxBIK_kYr5y1J-33" value="Disponible" style="ellipse;whiteSpace=wrap;html=1;" vertex="1" parent="1">
          <mxGeometry x="630" y="330" width="70" height="50" as="geometry" />
        </mxCell>
        <mxCell id="x9nKZWQnxBIK_kYr5y1J-34" value="" style="endArrow=none;html=1;rounded=0;entryX=0.5;entryY=1;entryDx=0;entryDy=0;exitX=0.5;exitY=0;exitDx=0;exitDy=0;" edge="1" parent="1" source="x9nKZWQnxBIK_kYr5y1J-33" target="x9nKZWQnxBIK_kYr5y1J-2">
          <mxGeometry width="50" height="50" relative="1" as="geometry">
            <mxPoint x="420" y="450" as="sourcePoint" />
            <mxPoint x="470" y="400" as="targetPoint" />
          </mxGeometry>
        </mxCell>
        <mxCell id="x9nKZWQnxBIK_kYr5y1J-35" value="" style="endArrow=none;html=1;rounded=0;entryX=0.5;entryY=1;entryDx=0;entryDy=0;" edge="1" parent="1" target="x9nKZWQnxBIK_kYr5y1J-32">
          <mxGeometry width="50" height="50" relative="1" as="geometry">
            <mxPoint x="330" y="360" as="sourcePoint" />
            <mxPoint x="460" y="400" as="targetPoint" />
          </mxGeometry>
        </mxCell>
        <mxCell id="x9nKZWQnxBIK_kYr5y1J-36" value="Pedido" style="shape=ext;margin=3;double=1;whiteSpace=wrap;html=1;align=center;" vertex="1" parent="1">
          <mxGeometry x="280" y="360" width="100" height="40" as="geometry" />
        </mxCell>
      </root>
    </mxGraphModel>
  </diagram>
</mxfile>
